<svg id="SvgjsSvg1001" width="288" height="288" xmlns="http://www.w3.org/2000/svg" version="1.1" xmlns:xlink="http://www.w3.org/1999/xlink" xmlns:svgjs="http://svgjs.com/svgjs"><defs id="SvgjsDefs1002"></defs><g id="SvgjsG1008"><svg xmlns="http://www.w3.org/2000/svg" viewBox="0 0 100 100" width="288" height="288"><g><path fill="#ffde59" d="M17.2,54.23,5.27,46C6,36.29,10,29.16,17.46,24.21l12,9.24Z" class="svgShape colorff7cb8-1 selectable"></path><path fill="#ffde59" d="M28.24,32.5l-7,11.83a8.29,8.29,0,0,1-11.86,2.6L5.44,44.2c-.07.58-.13,1.17-.17,1.77L17.2,54.23,29.47,33.45Z" opacity=".15" class="svgShape color060e38-2 selectable"></path><path fill="#fff" d="M21.08,28.92l7.61,5.86.78-1.33-12-9.24C10,29.16,6,36.29,5.27,46l.18.12c.83-7,3.49-12.51,8.05-16.83A5.87,5.87,0,0,1,21.08,28.92Z" opacity=".6" class="svgShape colorffffff-3 selectable"></path><path fill="#ffde59" d="M73.56,60a2.18,2.18,0,0,1-.27.58,2.15,2.15,0,0,1-1.46,1,2.18,2.18,0,0,1-1.69-.41L53.86,48.74a1,1,0,0,0-1.22,1.59L68,62l.85.64,2.57,2a2.29,2.29,0,0,1,.9,1.56,2.32,2.32,0,0,1-3.65,2.18l-3.95-2.81L51.81,55.88a1,1,0,1,0-1.2,1.6L64.12,67.62a2.74,2.74,0,0,1,.64,3.7,2.73,2.73,0,0,1-3.85.71L54.5,67.49,49.76,64a1,1,0,1,0-1.18,1.62l4.47,3.25s0,0,0,0l.28.2L57,71.77a2.34,2.34,0,0,1-2.66,3.86l-9.29-6,.76-.76A4,4,0,0,0,47,66a4.1,4.1,0,0,0-1.19-2.87,4,4,0,0,0-2.88-1.19h0a4.07,4.07,0,0,0-1.26.22,4,4,0,0,0-1.14-2.35A4.06,4.06,0,0,0,36,58.91a4.07,4.07,0,0,0-1.12-2.28,4,4,0,0,0-2.73-1.17,4.15,4.15,0,0,0,.08-.79,4.08,4.08,0,0,0-4.05-4.07h0a4,4,0,0,0-2.88,1.19l-3,3-2.27-1.48L30.39,35.84,46,33.22l2.75,1.37c-.74.32-1.68.62-2.61.91-2.62.82-5.32,1.68-6,3.58A3.16,3.16,0,0,0,40.6,42a4.49,4.49,0,0,0,1.15,1.19c3.58,2.57,11.12.91,13.31.34L72.83,57.7A2.16,2.16,0,0,1,73.56,60Z" class="svgShape colorffcc80-4 selectable"></path><path fill="#ffde59" d="M47.45,63.85a3.6,3.6,0,0,1-.9,2.41L43.16,70,23.88,57.23l6.18-6.89a2.92,2.92,0,0,1,2.17-1,2.86,2.86,0,0,1,2.15,1,3.6,3.6,0,0,1,.9,2.41,3.64,3.64,0,0,1-.51,1.87,2.79,2.79,0,0,1,2.94.87,3.63,3.63,0,0,1,.89,2.4,3.07,3.07,0,0,1-.05.53,2.82,2.82,0,0,1,4,.27,3.47,3.47,0,0,1,.85,2,3,3,0,0,1,.94-.19,2.87,2.87,0,0,1,2.19,1A3.6,3.6,0,0,1,47.45,63.85Z" opacity=".15" class="svgShape color060e38-5 selectable"></path><path fill="#ffde59" d="M74.82,56.93a4.29,4.29,0,0,0-.74-.8L55.92,41.61a1,1,0,0,0-.9-.18c-2.72.75-10.89,2.27-12.75-.57a1.31,1.31,0,0,1-.3-1.1c.34-1,2.87-1.77,4.72-2.35a15.86,15.86,0,0,0,4.07-1.67c2.36-1.66,4-2.15,7.22-.45a31.41,31.41,0,0,0,6.17,2.59,1,1,0,0,0,.63,0l4.87-2,10,17Z" class="svgShape colorcf711f-6 selectable"></path><path fill="#fff" d="M42.24,40.67c.34-1,2.87-1.76,4.72-2.34A16,16,0,0,0,51,36.66c2.35-1.66,4-2.15,7.22-.46a31.13,31.13,0,0,0,6.17,2.6,1,1,0,0,0,.63,0l2.33-.94a3.2,3.2,0,0,1,3.93,1.34l8.2,13.89.19-.15-10-17-4.87,2a1,1,0,0,1-.63,0A31.41,31.41,0,0,1,58,35.29c-3.19-1.7-4.86-1.21-7.22.45a15.86,15.86,0,0,1-4.07,1.67c-1.85.58-4.38,1.38-4.72,2.35a1.27,1.27,0,0,0,.25,1S42.23,40.7,42.24,40.67Z" opacity=".6" class="svgShape colorffffff-7 selectable"></path><path fill="#ffde59" d="M56.24,44.42c-2.45,1.67-12.66,3.14-14.52.29a1.3,1.3,0,0,1-.3-1.1,1.35,1.35,0,0,1,.33-.47c3.58,2.57,11.12.91,13.31.34Z" opacity=".15" class="svgShape color060e38-8 selectable"></path><path fill="#ffde59" d="M82.8,54.23,70.53,33.45l12-9.24C90,29.16,94,36.29,94.73,46Z" class="svgShape colorff7cb8-9 selectable"></path><path fill="#ffde59" d="M71.76,32.5l7,11.83a8.29,8.29,0,0,0,11.86,2.6l4-2.73c.07.58.13,1.17.17,1.77L82.8,54.23,70.53,33.45Z" opacity=".15" class="svgShape color060e38-10 selectable"></path><path fill="#fff" d="M78.92,28.92l-7.61,5.86-.78-1.33,12-9.24C90,29.16,94,36.29,94.73,46l-.18.12c-.83-7-3.49-12.51-8-16.83A5.87,5.87,0,0,0,78.92,28.92Z" opacity=".6" class="svgShape colorffffff-11 selectable"></path><path fill="#606060" d="M83.93,44.82A3.09,3.09,0,1,0,87,47.91,3.09,3.09,0,0,0,83.93,44.82Z" class="svgShape color606060-12 selectable"></path><path fill="#fff" d="M83.93,49A1.09,1.09,0,1,1,85,47.91,1.09,1.09,0,0,1,83.93,49Z" class="svgShape colorffffff-13 selectable"></path><path fill="#606060" d="M23.92,31.18A3.09,3.09,0,1,0,27,34.27,3.09,3.09,0,0,0,23.92,31.18Z" class="svgShape color606060-14 selectable"></path><path fill="#fff" d="M23.92,35.36A1.09,1.09,0,1,1,25,34.27,1.09,1.09,0,0,1,23.92,35.36Z" class="svgShape colorffffff-15 selectable"></path><path fill="#ffde59" d="M83,22.14a1,1,0,0,0-1.14.05L68.61,32.41a1,1,0,0,0-.26,1.3l.27.45-4.26,1.7a32.4,32.4,0,0,1-5.44-2.34c-3.48-1.85-5.84-1.51-8.2-.13a.71.71,0,0,0-.09-.07l-4.08-2a1.08,1.08,0,0,0-.61-.09l-14.25,2.4a1,1,0,0,0-.3-1.18L18.12,22.19A1,1,0,0,0,17,22.14C8.5,27.49,3.88,35.66,3.24,46.41a1,1,0,0,0,.43.89l13.27,9.19a1.06,1.06,0,0,0,.57.17.75.75,0,0,0,.21,0,1,1,0,0,0,.65-.47L19,55.05l1.85,1.2-.6.6a4,4,0,0,0-1.2,2.86A4,4,0,0,0,23,63.77a4.06,4.06,0,0,0,4,4.85,4,4,0,0,0,1.59-.33,4,4,0,0,0,4,3.47h0a4.06,4.06,0,0,0,1.25-.22,4.06,4.06,0,0,0,6.9,2.34L43.58,71l9.64,6.28a4.34,4.34,0,0,0,6.71-3.54,4.65,4.65,0,0,0,2.54.77,5.24,5.24,0,0,0,.88-.08,4.73,4.73,0,0,0,3.86-4.67l.26.19a4.31,4.31,0,0,0,5.45-6.66,4.17,4.17,0,0,0,2.69-4.45l5.12-4.22.9,1.52a1,1,0,0,0,.65.47.75.75,0,0,0,.21,0,1.06,1.06,0,0,0,.57-.17L96.33,47.3a1,1,0,0,0,.43-.89C96.12,35.66,91.5,27.49,83,22.14ZM17.2,54.23,5.27,46C6,36.29,10,29.16,17.46,24.21l12,9.24Zm3.89,5.49a2,2,0,0,1,.61-1.45l5.05-5.06a2.06,2.06,0,0,1,1.46-.61h0a2,2,0,0,1,1.45.61,2.05,2.05,0,0,1,0,2.92l-5,5a2.08,2.08,0,0,1-2.92,0A2,2,0,0,1,21.09,59.72ZM25.53,66a2.05,2.05,0,0,1,0-2.92L30.59,58a2.07,2.07,0,0,1,1.45-.6h0A2.06,2.06,0,0,1,33.5,61L28.44,66A2.06,2.06,0,0,1,25.53,66Zm7,3.74h0a2,2,0,0,1-1.46-.6,2.08,2.08,0,0,1,0-2.92l5.06-5.06a2,2,0,0,1,1.45-.6,2.06,2.06,0,0,1,1.46.6,2.07,2.07,0,0,1,.27,2.58L35,68.13a4.33,4.33,0,0,0-.4.47l-.56.56A2,2,0,0,1,32.58,69.76Zm6.74,2.7a2.1,2.1,0,0,1-2.92,0,2.06,2.06,0,0,1-.28-2.57l4.39-4.37a3.35,3.35,0,0,0,.39-.47l.56-.55a2.05,2.05,0,0,1,2.92,0,2.05,2.05,0,0,1,0,2.91Zm34-11.86a2.15,2.15,0,0,1-1.46,1,2.18,2.18,0,0,1-1.69-.41L53.86,48.74a1,1,0,0,0-1.22,1.59L68,62h0l.85.64,2.57,2a2.29,2.29,0,0,1,.9,1.56,2.32,2.32,0,0,1-3.65,2.18l-3.95-2.81h0L51.81,55.88a1,1,0,1,0-1.2,1.6L64.13,67.62a2.74,2.74,0,0,1,.63,3.7,2.73,2.73,0,0,1-3.85.71L54.5,67.49,49.76,64a1,1,0,1,0-1.18,1.62l4.47,3.25s0,0,0,0l.28.2L57,71.77a2.34,2.34,0,0,1-2.66,3.86l-9.29-6,.76-.76A4,4,0,0,0,47,66a4.1,4.1,0,0,0-1.19-2.87,4,4,0,0,0-2.88-1.19h0a4.07,4.07,0,0,0-1.26.22,4,4,0,0,0-1.14-2.35A4.06,4.06,0,0,0,36,58.91a4.07,4.07,0,0,0-1.12-2.28,4,4,0,0,0-2.73-1.17,4.15,4.15,0,0,0,.08-.79,4.08,4.08,0,0,0-4.05-4.07h0a4,4,0,0,0-2.88,1.19l-3,3-2.27-1.48L30.39,35.84,46,33.22l2.75,1.37c-.74.32-1.68.62-2.61.91-2.62.82-5.32,1.68-6,3.58A3.16,3.16,0,0,0,40.6,42c2.74,4.2,12,2.17,14.46,1.53L72.83,57.7A2.18,2.18,0,0,1,73.29,60.6Zm1.53-3.67a4.29,4.29,0,0,0-.74-.8L55.92,41.61a1,1,0,0,0-.9-.18c-2.72.75-10.89,2.27-12.75-.57a1.31,1.31,0,0,1-.3-1.1c.34-1,2.87-1.77,4.72-2.35a15.86,15.86,0,0,0,4.07-1.67c2.36-1.66,4-2.15,7.22-.45a31.41,31.41,0,0,0,6.17,2.59,1,1,0,0,0,.63,0l4.87-2,10,17Zm8-2.7L70.53,33.45l12-9.24C90,29.16,94,36.29,94.73,46Zm1.13-9.41A3.09,3.09,0,1,0,87,47.91,3.09,3.09,0,0,0,83.93,44.82Zm0,4.18A1.09,1.09,0,1,1,85,47.91,1.09,1.09,0,0,1,83.93,49Zm-60-17.82A3.09,3.09,0,1,0,27,34.27,3.09,3.09,0,0,0,23.92,31.18Zm0,4.18A1.09,1.09,0,1,1,25,34.27,1.09,1.09,0,0,1,23.92,35.36Z" class="svgShape color060e38-16 selectable"></path><path fill="#ffde59" d="M21.09 59.72a2 2 0 0 1 .61-1.45l5.05-5.06a2.06 2.06 0 0 1 1.46-.61h0a2 2 0 0 1 1.45.61 2.05 2.05 0 0 1 0 2.92l-5 5a2.08 2.08 0 0 1-2.92 0A2 2 0 0 1 21.09 59.72zM25.53 66a2.05 2.05 0 0 1 0-2.92L30.59 58a2.07 2.07 0 0 1 1.45-.6h0A2.06 2.06 0 0 1 33.5 61L28.44 66A2.06 2.06 0 0 1 25.53 66zM32.58 69.76h0a2 2 0 0 1-1.46-.6 2.08 2.08 0 0 1 0-2.92l5.06-5.06a2 2 0 0 1 1.45-.6 2.06 2.06 0 0 1 1.46.6 2.07 2.07 0 0 1 .27 2.58L35 68.13a4.33 4.33 0 0 0-.4.47l-.56.56A2 2 0 0 1 32.58 69.76zM39.32 72.46a2.1 2.1 0 0 1-2.92 0 2.06 2.06 0 0 1-.28-2.57l4.39-4.37a3.35 3.35 0 0 0 .39-.47l.56-.55a2.05 2.05 0 0 1 2.92 0 2.05 2.05 0 0 1 0 2.91z" class="svgShape colorcf711f-17 selectable"></path></g></svg></g></svg>