<svg id="SvgjsSvg1001" width="288" height="288" xmlns="http://www.w3.org/2000/svg" version="1.1" xmlns:xlink="http://www.w3.org/1999/xlink" xmlns:svgjs="http://svgjs.com/svgjs"><defs id="SvgjsDefs1002"></defs><g id="SvgjsG1008"><svg xmlns="http://www.w3.org/2000/svg" viewBox="0 0 64 64" width="288" height="288"><defs><linearGradient id="a" x1="6.488" x2="57.512" y1="32.025" y2="32.025" gradientUnits="userSpaceOnUse"><stop offset="0" stop-color="#ffde59" class="svgShape stopColorffde00-2"></stop><stop offset="1" stop-color="#ffde59" class="svgShape stopColorfd5900-3"></stop></linearGradient></defs><path fill="url(#a)" d="M25.332 10.67c.317-8.826 13.028-8.827 13.34 0a6.67 6.67 0 0 1-13.34 0Zm23.392 11.874a6.158 6.158 0 0 0 6.157-6.158c-.288-8.148-12.022-8.147-12.315 0a6.163 6.163 0 0 0 6.158 6.158Zm-33.447-.087a6.158 6.158 0 0 0 6.158-6.157c-.289-8.149-12.022-8.148-12.315 0a6.163 6.163 0 0 0 6.157 6.157Zm37.206 2.641h-8.435v15.589a5.208 5.208 0 0 1-3.069 4.72 3.042 3.042 0 0 0 1.97.708.89.89 0 0 1 .945.832v12.027A1.03 1.03 0 0 0 44.92 60h7.615a1.03 1.03 0 0 0 1.026-1.026V46.947a.89.89 0 0 1 .944-.832 2.939 2.939 0 0 0 3.007-2.873V29.87a4.915 4.915 0 0 0-5.029-4.772Zm-32.53 15.589V25.232a1.665 1.665 0 0 1 .01-.226h-8.446a4.915 4.915 0 0 0-5.029 4.772v13.371a2.939 2.939 0 0 0 3.007 2.874.897.897 0 0 1 .944.831v12.027a1.03 1.03 0 0 0 1.026 1.027h7.615a1.03 1.03 0 0 0 1.026-1.027V46.854a.897.897 0 0 1 .944-.831 3.094 3.094 0 0 0 1.899-.647 5.211 5.211 0 0 1-2.997-4.69Zm22.042 0V25.232a5.536 5.536 0 0 0-5.654-5.367h-8.682a5.53 5.53 0 0 0-5.654 5.367v15.455a3.167 3.167 0 0 0 2.011 2.914c.894.42 2.488-.022 2.555 1.365V58.88a1.03 1.03 0 0 0 1.027 1.027h8.804a1.03 1.03 0 0 0 1.027-1.027V44.966c.066-1.376 1.65-.956 2.545-1.355a3.19 3.19 0 0 0 2.021-2.924Z" class="svgShape colorgradient-4 selectable"></path></svg></g></svg>